{
  "accessors": [
    {
      "bufferView": 2,
      "componentType": 5126,
      "count": 1121,
      "max": [
        1.9456629753112793,
        9.695860862731934,
        4.9182868003845215
      ],
      "min": [
        -1.9768370389938354,
        6.910863876342773,
        3.4674320220947266
      ],
      "type": "VEC3"
    },
    {
      "bufferView": 2,
      "byteOffset": 13452,
      "componentType": 5126,
      "count": 1121,
      "max": [
        0.9999696016311646,
        0.9999076128005981,
        0.9999980926513672
      ],
      "min": [
        -0.9999696016311646,
        -0.9997795224189758,
        -0.9999679327011108
      ],
      "type": "VEC3"
    },
    {
      "bufferView": 1,
      "componentType": 5126,
      "count": 1121,
      "max": [
        0.24559800326824188,
        0.8020600080490112
      ],
      "min": [
        0.0020910000894218683,
        0.5573999881744385
      ],
      "type": "VEC2"
    },
    {
      "bufferView": 0,
      "componentType": 5125,
      "count": 6252,
      "type": "SCALAR"
    }
  ],
  "asset": {
    "extras": {
      "author": "iX.i UGC (https://sketchfab.com/ChampiAndIX.i)",
      "license": "CC-BY-4.0 (http://creativecommons.org/licenses/by/4.0/)",
      "source": "https://sketchfab.com/3d-models/black-glasse-f3efe0f44f84449e9c7c30a3cffdd5ed",
      "title": "Black Glasse"
    },
    "generator": "Sketchfab-16.71.0",
    "version": "2.0"
  },
  "bufferViews": [
    {
      "buffer": 0,
      "byteLength": 25008,
      "name": "floatBufferViews",
      "target": 34963
    },
    {
      "buffer": 0,
      "byteLength": 8968,
      "byteOffset": 25008,
      "byteStride": 8,
      "name": "floatBufferViews",
      "target": 34962
    },
    {
      "buffer": 0,
      "byteLength": 26904,
      "byteOffset": 33976,
      "byteStride": 12,
      "name": "floatBufferViews",
      "target": 34962
    }
  ],
  "buffers": [
    {
      "byteLength": 60880,
      "uri": "scene.bin"
    }
  ],
  "images": [
    {
      "uri": "textures/Aaron06brown1Mtl_baseColor.png"
    }
  ],
  "materials": [
    {
      "doubleSided": true,
      "name": "Aaron06brown1Mtl",
      "pbrMetallicRoughness": {
        "baseColorTexture": {
          "index": 0
        },
        "metallicFactor": 0.0,
        "roughnessFactor": 0.6
      }
    }
  ],
  "meshes": [
    {
      "name": "Object_0",
      "primitives": [
        {
          "attributes": {
            "NORMAL": 1,
            "POSITION": 0,
            "TEXCOORD_0": 2
          },
          "indices": 3,
          "material": 0,
          "mode": 4
        }
      ]
    }
  ],
  "nodes": [
    {
      "children": [
        1
      ],
      "matrix": [
        -0.9999464154243469,
        3.331722298134015e-16,
        0.0103532113134861,
        0.0,
        0.0103532113134861,
        -3.4859871231333265e-16,
        0.9999464154243469,
        0.0,
        3.3676349151826274e-16,
        1.0,
        3.4513062855502853e-16,
        0.0,
        0.0,
        0.0,
        0.0,
        1.0
      ],
      "name": "Sketchfab_model"
    },
    {
      "children": [
        2
      ],
      "name": "Black Glasse.obj.cleaner.materialmerger.gles"
    },
    {
      "mesh": 0,
      "name": "Object_2"
    }
  ],
  "samplers": [
    {
      "magFilter": 9729,
      "minFilter": 9987,
      "wrapS": 10497,
      "wrapT": 10497
    }
  ],
  "scene": 0,
  "scenes": [
    {
      "name": "Sketchfab_Scene",
      "nodes": [
        0
      ]
    }
  ],
  "textures": [
    {
      "sampler": 0,
      "source": 0
    }
  ]
}
